<svg xmlns="http://www.w3.org/2000/svg" id="svg-6582e0e9-ffcd-4a65-9150-bc330ccc01cd" class="injected-svg" viewBox="0 0 540 508"><defs/><g xmlns="http://www.w3.org/2000/svg" id="shape-svg" fill="#d68048"><defs/><g id="Слой_2" data-name="Слой 2"><g id="Слой_1-2" data-name="Слой 1"><path d="M356 270.2a11.3 11.3 0 01-.5 1.3 8.4 8.4 0 00.4-1.3zM354.3 267.6l.1-.5c.1-.2 0-.2 0-.4z" class="tmp-cls-1" transform="matrix(.9 0 0 .9 101 90)"/><path d="M356.8 260c-.6 2.4-1.7 4.4-1.6 3.4a50 50 0 01-.8 3.8c0 1.2 0 1.5.3 2a10.8 10.8 0 01-1.8 4.8c-.6.7-.8.6 0-1.4l-.7 1.5-1.6 3.1c-1.3 2.3-2.7 4.3-2.7 4.3l1.8-2.4c1-1.2 1.8-2.5 1.8-2.5-.1 1-1.5 3-3 5s-3 3.7-3.4 4.8l1.1-1.4 2.3-3c1.7-2 3.2-4.5 3.2-4.5l-.1.7 2.4-4.5a25 25 0 001.9-5 2 2 0 01.1.7 4.8 4.8 0 01-.1.8 13.8 13.8 0 00.5-2.4c1.7-6.9-1.1-1.5 1.2-10.3a23.6 23.6 0 01-.8 2.4zM361.6 250.2l.1-4.5 2-7c-.3-.2.6-5.5-.5-2a29 29 0 01-.6 3.1c-.6-1 1.8-9.6.6-7.6-1.1 5.7-1.5 6.5-1.8 10a103.7 103.7 0 01-3.4 11.2c-.3 1.6.1 2-.3 3.9l.3-1.3h1.2a40.6 40.6 0 011.2-5l-1 8.7c1.8-2.3 3.4-10.7 4.7-13.9-2 3.9.4-3.3-2.5 4.4zM7 180.8h-.1v2-.1l.1-2zM19.1 125l-2.8 9c.2-1.3-1.3 3-1 1-.1.7-1.2 3.9-.7 3l.6-1.7c-.7 5 .5 2.2-1.3 10.2a33.8 33.8 0 002.8-9.5l.8-2.4L19 127zM214.6 364.3l.4-.4c-.5.2-2.4.4-.4.4zM372.9 192c0 .5-.2 1-.3 1.3a9.4 9.4 0 00.3-1.3zM101.8 26.5l1.8-1.4zM157.8 1.9a19.1 19.1 0 00-3.7.8l1.9-.5zM370.2 162v-.1l-.1-.6zM265 20.5l1.8 1.1a6 6 0 00-1.7-1zM153.5 2.9h.2l.4-.2zM80.2 37.9l-1 1a10.1 10.1 0 001-1zM31 104.4l-1.3 3a30.3 30.3 0 001.3-3zM78 43c-.2 0-.3.2-.4.3.4-.3.5-.4.3-.4zM366.4 212.3v-.2l-.1-.1zM366.6 220.4zM306 47c.7.6 2.2 2 1.3 1.6 1.4.9 1.8.3-1.3-1.7zM366 228.2c.7.6-1.2 6.7-1.6 9.5.7-2 .3 1.2.8.6a45 45 0 011-5.3c.6-1 0 2.5-.7 5.2 1.2-3.2-.4 4.3 1-.2 2.1-10.1 3.3-17.3 3.3-24.7a126.4 126.4 0 01-3.3 16.9l-.2-2.1c1.7-5.2 2-8.6 3-13.8l-1.4 5.9-1.3 5.8c-1.8 5.3-1.2 1.6-.4-2.7a9.4 9.4 0 01-.7 2.2c.2.6-2 13 .4 2.7zM365.4 210.2c0-.1 0-.1 0 0zM45.5 74.7a.4.4 0 00-.1 0c-.3.5-.1.3.1 0zM300.9 39l2.4 1.7a26.5 26.5 0 00-2.4-1.7zM337 83l-1.4-1.7-.3-.2a15.1 15.1 0 001.6 1.9zM201.9 10.2a10 10 0 00-2 0 9.3 9.3 0 002 0zM372 195.7v0z" class="tmp-cls-1" transform="matrix(.9 0 0 .9 101 90)"/><path d="M141.7 8.6z" class="tmp-cls-1"/><path d="M373 178.3c-.3-4-.4-6.8 0-6.7l-.4-3.2-.2-1.6v-2.3a9.3 9.3 0 00-.1-1.6c-1-3-1 .3-2.6-6.6l.3 2.8.3 2.8.4 1.7a6.6 6.6 0 01.2 1.1v0a15.3 15.3 0 00-.2-2.4l-.5-3c.8 3.8 1 3 1.8 4.2l.1 5.2.1 3.5c0 2.1 0 3.8.3 6-1-2.6-1.5-6.9-2-5.2a15.2 15.2 0 00-.5-4.3 14 14 0 01-.3-1.8 11 11 0 010-1.2v-.8-1.2a12.7 12.7 0 01.2 1.3 11 11 0 00-.3-1.8l-.2-1.1-.3-1.8a13.8 13.8 0 00-.8-3.8c.2.3.2-.2.2-.7-1.9-7.2.1 2.3-2.2-4.8-1.6-6.4.6-2.4.4-4.2 2 5.2 2.1 5.2 2.4 5.1s.7 0 2.2 6.1c1-.2.3-5.1-1.6-11.4.7 4.2-2-2.3-1.2 3.4a40.8 40.8 0 00-3.8-8.7 41 41 0 01-3.5-9.4l.2.2-2.1-3.8-1.8-5.6c2.2 3 3.4 7.4 5 10-1.6-7.1-4.4-8.7-7.3-16.4-1.3-6.7 3.6 7.5 4.5 7.2-.8-1.5-2-5.8-1.5-5.4 2.4 7.3 2.3 4.1 4.8 12.4-1.8-3.8 0 .7-.7.1a82 82 0 015.2 14.5c1 1.1-.9-5.1-1.9-8.7-3-6.3-4.3-13.4-7-18-2.6-6.7.5-.7.4-1.2-2-6.1-1.5-2.4-2.4-4.3-3.8-9-2.9-10.4-4.7-16.8a19.3 19.3 0 01-.8-2.3l-.3-.6-.3-1.2c-.3-.9-.4-1.8-.8-2.7L344 82l-5.5-7c-2-2.3-3.8-4.5-5.6-6.4 1.1.7.4-.5.2-1.2l-4.4-3.1c-.9-.7-2-1.8-5-4.1l2.2 2.4L328 65a70.8 70.8 0 00-5.5-4.8 46.2 46.2 0 01-5-4.8c4 5.1-6.9-4.9-10.3-6.8-3.9-3.6-8.7-6-10.7-8.2l.6.4-3.1-2.3a43 43 0 00-2.2-1.4l-1-.7 1.4-.5a41 41 0 00-6.6-3.9c-2-.8-3.1-1.2-2.4-.6-4.7-3-1.8-1.5-2.2-2.3 1.4.6 3.8 1.5 5.9 2.5s4 2.3 4.5 3.2a5.5 5.5 0 00-1.6-1c6.1 4 7.2 4.5 7.7 4.3s.2-1 3.4.9c-3.2-2.2-5.2-4.4-8.9-6.2l-5.3-3c-2.4-1.2-5-2.3-6.8-3a42 42 0 0110.4 6.4c-3-2-3.8-1.7-6.2-3.5l1 .3-3.6-1.5c-.1-1-9.3-5.2-3.7-3.2-4.8-2.3-1.9-.3-6.3-2.2l4.2 2.2 4.1 2.3-.4.5c-3.3-1-3.8-2-7.2-3.6v.9l-3-1.8-2.8-1.7c.5.8-4-1.5-5.5-1.9-3.3-1.7-.6-2-6.7-3.6l.4.2c-3.5-1-5.5-1.6-10.4-3.4a13.4 13.4 0 012.4.5c-6.7-2.8-18.3-4.4-21.2-6.2.7-.5 3.5.5 3.9-.2 5.3 1.7 7.2 2.2 9.5 2.4s4.7.6 10.9 3c0 .8 2.7 1.6 5.6 2.4s6 1.9 6.9 3a32.1 32.1 0 00-10.7-3 119.1 119.1 0 0113.6 5.4c-2.4-1.6-1.2-2.1 1-1.7C258.8 16 246 10 235.3 7l1 1.3c-9.4-1.8 1.3-.7-5.8-2.5H227l-.4-.2-2.8-.2h-2.7c3.7.6 2.2-.5 6.2.9 3.5 1.1-.4.7-1.5 1-2.4-1-11.4-2.3-5.8-2l-5-.4-5-.2c.2-.3 2.3-.2 3.4-.2l-3.6-.5-3.6-.4h.3c-5.8-.3-13.9-.9-18.3-.2 4.9.4 3.7.7 1.4.7s-5.7.3-5.2.6c-3.5-.1-4.7-1.9 2.9-2.5 2 .6 7.2.1 11 .3a58.8 58.8 0 00-10.3-.3c2.7-.4-5.1-.6-5-1 .5-.3 2.1-1 7.1-.7 7.4.5.7 1 3 1 1 .4 3.5.5 6.4.6s6 .3 8.3.7H206c3.9.4 11.9 1.6 12.6 1.1l-4.8-.6L209 3c-2.1-.5 3-.1 0-1-2.1-.2-4.8-.3-7.6-.8l.5-.1a74.1 74.1 0 00-10.6-1c-3.9 0-7.9 0-11.3.2-1.5 1.5-5 2.4-7.8 4a205.8 205.8 0 00-30.6 4.4c.2.3.2.6-.2 1-3 .3-8.2 2-8.3 1.3-2.9 1.6-11.3 5.1-9.4 5.2l-1.1.5a48.3 48.3 0 00-7.3 1.9l-5.2 1.9-2 .9-.6.2-.5.4-.9.8-1.4 1.3-1.3 1c-1.4 1.2-1.3 1.8-.5 2L98 30.4a24.7 24.7 0 013.7-3.7s-2.9 2.2-6 4.2l-4.3 2.5-1.4.7-.8.4.3-.2.2-.2.2-.1.4-.4-.9.5a8 8 0 00-2.5 2l-1.6 1.8-.6.6 2-2c.6-.4 1-1.1 1.7-1.3l1.7-.9c1.3-.6 2.3-.8 2-.2l-1 .6-.6.3-.6.4-1.4.8-1.2 1-.9.9-.7.7-1.4 1.2a73.4 73.4 0 00-5.7 5.2c-.8-1-2.5 0-1.4-1.8a5 5 0 01.6-.4 92.8 92.8 0 016.5-7.5c-4.4 3.7-6.3 5-8 6.3l-8 6c-.7 0 1.4-2 3.3-3.5s3.5-3 2.3-2.4l4.1-3c2-1.4 3.8-2.9 3.8-2.9a17 17 0 00-1.7 2c1.2-1.1 2.2-2 3-3l1.9-1.7a7.9 7.9 0 012.6-1.8l1-.5.6-.3 1.2-.8a21.8 21.8 0 002.6-2.1c2.9-1.4-3.8 3-.8 1.4a29.7 29.7 0 00-3.2 2.6l-.3.3-.8.5-1.2 1a23.8 23.8 0 00-1.5 2l1.8-1.6 1.7-1 .6-.3.3-.2.6-.4a7.1 7.1 0 001.4-1.2 16.4 16.4 0 013.7-3.4l2.2-1.2 2.2-1.2c2.2-1.9-1 .3-1.3.2a39.1 39.1 0 013.2-2.5l1.3-1 .6-.4L105 20l-1.1.9a5.5 5.5 0 01-.8.5c-.4.2-.7.4-.6.1l.6-.4.3-.3h.1l.2-.2.3-.3 1.3-1 .6-.6.7-.4 4.5-1.8a29.8 29.8 0 017.2-2.2c-2.8.6 2.4-2.4 4.5-3.3l-4.9 1.3-3.3 1-1.5.4-4.1 2-3 1.3-.8.4a3.8 3.8 0 00-.7.6l-1.4 1.3-1.5 1.4-1.2 1a57.4 57.4 0 01-8.1 5.9l-3.1 2-.8.5-.5.3-1 .5c-1.4.5-2.4 1.8-3.5 2.8l.8-1.3-1.2 1-.6.6-1.1.9-2.1 1.7-3.5 2.8a56 56 0 00-4.8 4.5c-1.4 1.5-2.7 3-4.6 4.8s-4.3 4.1-7.8 7.8c-.6-.2-2.2 1.6-3.6 3.3s-2.5 3.5-2.7 3a29.2 29.2 0 002.7-3.9c0-.3-.6.1-1.4.7-1 1.6-1.6 3-2.6 4.8l-1.4 2.8-2 3.3c.6-2.2-2.3 2.2.4-3-4.2 7-6.2 10.8-7.4 15-5.4 12-2.9 2.8-8.5 14.7l.6-1.9-3.6 7.4 1.7-2.2-1.9 4.6-1.8 4.5c-2 5.6 1.6-2 1.7-1l.2-2.2c1.8-3.5 3.7-8.7 4.6-9.2-2.8 5.8-1.6 4.7-2.4 7.1l2.4-5.6 1.4-1.5c2.7-5.4 5-9.4 6.2-12.8-1.5 2-1.5 3.8-2.9 5.6.5-3.1 4-9.7 7.3-16.2.3 0 1.4-2 1.1-1a12.1 12.1 0 01-1 1.8c.7-.3-1 3.4 2.5-2.5-.7 2.5-2.1 7.5-1.8 7.4a176 176 0 01-6 11.2v-.3c-1.7 3-4.5 9.8-5.3 10-.8 2-3.2 7.3-.2 2.1l-2 4.5-2 4.6c-.4-2-4.5 6.3-1.2-3l-2.6 6.1c.7-3.5-1.7 1-3.8 6v1.4c-2.1 4.2-3.7 6.6-5.6 12.5l-1.3 7.3-1 7.3c-.5 1.3-.8 2.7-1.2 4.1-.9 1.7-2.4 8-2.4 5.3-.5.6 0-1.6.9-4.2.2-.4 0 .3.2-.1-.2-.9-.5-1.4-2 1.8a35.8 35.8 0 001.7-6.2l-.5 1.7-.6 1.6c1.3-5 3-13 2.4-13 .3 1.8-1.5 4.8-2.5 7.4.5-2 1.5-6.6.3-3.3-.1 1.3-2.6 10.6-.2 4.2a88.1 88.1 0 01-2.5 9.8c.7-3.9-.3-1.5-.5-2.7-.5 3.5.1 3.5.3 4.1-1.6 4.7-3 7.9-4 11.4a58 58 0 00-2.8 12.7c-.1 1.4 1-6.7 1.3-5.6a42.1 42.1 0 01-1.6 9l-1 3.8-.2 1-.2 1.4a11.5 11.5 0 00-.1 2.2v1.2l.5-1 .1-.4.2-.5.2-.6.2 5.4.3 5.3c-.3.6-.4 8.6-1 2.7a32.5 32.5 0 002.2 12.6l1 2.5.6 1.4a15.1 15.1 0 001 2.4l2 3.3 1.8 3.5a53 53 0 00-2.4-5.1l-.9-1.6a8.7 8.7 0 01-.8-2l-.5-1.9-.5-2c2 6 .6.9 1.4 1.4a11.6 11.6 0 00.3 1.8l.5 1.5a14.2 14.2 0 00.7 1.5l1.6 3.2c.8 1.7 1 2.4-.7-.2 1.8 3.2 4.6 10.3 5.6 12l-.5-1.7-.5-1.6c2.1 5.2 4.5 10.4 5.9 12.5-2.5-6.8-3.4-6.3-6.6-14.5-3.3-9 1.5 1.8-.2-4.3l-1.8-2.9-2-3 1.6 3A4.3 4.3 0 018 228l-.4-.7-.8-1.5a30.2 30.2 0 01-1-2.8c-.8-3-1.2-5.6-1.7-5l-.5-9.5a71 71 0 01.2-9.5c-.4-2-.4 1-.4 3.5A26.8 26.8 0 003 198a14.4 14.4 0 01-.1-2.1 10.7 10.7 0 010-2.3l.5-2c.3-1.4.1-1.6-.2-1a10.3 10.3 0 00-.5 1.9 13.8 13.8 0 00-.4 1.9v2.2-2c0-1 .2-1.8.3-2.2l.4-3.2c.2-2 .5-4.3 1-6.6l-.8 2.3-.7 2.4.4-2.5.4-2.5-.6 2-.5 2c1.3-9.4 3.8-20.1 6-24.7L5.5 176c-.7 5-1.4 9.6-1 12 .5-1.8.1-6.6 1.6-8.8l-.2-2.6c.3-2.9 1.5-9.5 2.3-9.9a77 77 0 00-1.2 14v2c-.5 2.3-1 6.1-1.1 8.3-.6 2.7-.7.8-.8.5l-.3 1.7a10 10 0 00-.3 2.4v3.2c.1 2.1.3 4.1.6 6.2l2 13.7c-.3 0 0 2.2.3 4 .4 2.4 1.5 4.3.4 2.7l1.2 2.3.9 1.4 1.5 2.6 2.8 4.5c-.2.9 2.9 7.8 1.3 5.4l1.3 2.2 1.3 2.3c.9 3.4 3.6 10.3 3.4 11.7 1.5 3.7 1.3.7 2.8 6-.2-.1-.2.3-.5-.8a46.1 46.1 0 004.2 10.6l-1.8-5.4a43 43 0 014.5 9.8c-1.9-3.2-1.5-1.8-.8 0s1.6 4.2.6 2.7a37 37 0 002 3.8l1.2 2a19.5 19.5 0 001.5 1.8l4 4.8c2.7 3 5.3 6 8.3 9.7 3.3 4.6 7.1 9.9 11.9 14.2a45.4 45.4 0 007.5 5.6c2.4 1.3 4.6 2.3 6.7 3.2l-1-.6 4.7 2c2.7 1.5-.4.9 3.8 2.9-1.8 0-7.1-3.7-11.6-5.5 3.4 2.3 1.6 1.6-.4.7s-4.6-2.2-2.2-.4c3.6 0 15.3 8 22 10.6 6 3.3-3-.9 0 .8l2.1.5c2.4 1.4 3.1 2 2.9 2.3a114 114 0 0020.1 8.8c-7.4-3 2.8.4-4.4-2.9l11.6 4.5c-4.5-1.5 5.3 3.6-4.2-.7 1 1.4 4.8 1.9 9 3.7-2.3-.6-7.3-2.1-7-1.9 3.5.8 8.7 3.1 13.5 5s9 3.4 10.5 3.4c5.1.8 13 2 19.2 2.4a7.3 7.3 0 001.5.3l1.1.2 2.4.3 4.8.4c3.3.2 6.7.4 10 .8l-1.2.2c3.9.5 10 .5 15.7 1l1.2.7h17.5c0-.3-5.5-.2-2.9-.7-3 0-5.6 0-4.5.5-3-.1-3.1-.7-5.6-1h5.8l5.9-.3a4 4 0 011.3.2l.8-.7c3 0 4 0 3.4.3a57.6 57.6 0 007.7-1c2.3-.4 4.5-.6 8-1a32.2 32.2 0 01-9.6 1.9l4-.3c2-.1 3.9-.4 3.9-.4-1.8.6-6 1-9.7 1.4s-6.4.6-5.2 1c4.4-.3 9.7-.8 15-1.6a114.7 114.7 0 0013.8-3.1 35.5 35.5 0 007.3-1.4c2.7-1 5.7-1.9 9-2.9.9-.1 2.9-.7 1.8 0l-1.7.8 6.4-2.5c2.1-.9 4.3-2 6.4-3.1s4-2.4 5.9-3.6a19.9 19.9 0 002.8-2 20.3 20.3 0 002.4-2.5 22 22 0 001.7-1.4l1.7-1.6a22.6 22.6 0 002.6-5.3c.2-.6-.1-.4-.4-.2s-.6.3-.5-.3a21 21 0 012.2-5 61.9 61.9 0 0112.3-10.6c2-1.6 2.8-2.3 2.8-2.9-1.9 1.3-5.6 4.6-3.8 2.3 3.4-3 5.5-4 8.4-6-.1.2-2 2-1 1.2 3.6-2.8 8.9-6.5 13.8-10.8s9.2-9.3 11.2-13.2l-2 3a16.6 16.6 0 01-3 3.3c-.2-.3 1.5-2 2-2.8-.9 0-2.7 3.7-6.5 6.4l.8-1 1.7-2c.7-.6 1.2-1.4 1.7-2l.7-.8a56.6 56.6 0 007.6-10.4s9.6-11 9.6-16.6a432.5 432.5 0 0016.6-77.4 74.5 74.5 0 00-1.3-12 45.1 45.1 0 011.3 17.1c0-.3 0-1-.2.2-1.1 7.4-.3 10.6-2 16.5l-.2-.9c0 .6-.3 4.1.3 3.5.7-5 .6-6 1.5-10.5a50.8 50.8 0 01-.8 9l.7.4c0 4-1.8 7.5-1.8 11.4l1.4-4.3-.1.8a23.5 23.5 0 00.5-4.3c.8-6.7 2.3-10 3-11 .6-3 .6 1.3 1.1 1 .7-5-.2-4.9.4-10 .2-1.2.3-.9.3-.3v-3.4a7 7 0 00.3-1.3l.3-1.6V188c.1-1.7.2-2.7.6.2a16.3 16.3 0 010 2c0 .7-.2 1.4-.3 2l.3-1.4a9.4 9.4 0 00.2-2.1V185c0-2.4-.2-4.7-.3-6.7zM320.2 64a2.6 2.6 0 01-.8-.5c2.9 2.7 4.4 4.2 5.7 5.6s2.6 2.6 4.7 4.9l-1.5-1.2c.2 1.2 4.2 4.5 7.3 8.5a19 19 0 014.4 5.2l-.8-.4a18 18 0 002 3.4c.6.9 1.4 1.8 2 3l1 4-.7-1.6-.5-2.4a184.6 184.6 0 00-34-36.9c3.5 2.6 7.3 5.4 11.2 8.5zM223 13.7c3 .3 6.7.4 11.4 1l-.3.1L239 16l4.8 1.4h-1.3l2.9.6 2.8.7c-.3.6 1.6 1 1.1 1.3 3 2.4 12.4 4 19.4 8.1l-1.3-.2c2.1.5 5.4 2.3 9 4.3 3.5 2 7.2 4.3 10 6.2h-.2c-2.8-1.4-4-1.8-3.8-1.3q-4.2-2.5-8.6-4.7a11.8 11.8 0 00-1.1-1l-3.8-1.6-.7-.3q-6.6-3.2-13.5-5.9a23.7 23.7 0 012.4.5l-2.8-1-6.3-2.2-6.3-2-3-.9q-8-2.4-16.2-4.1c.6 0 .4 0 .5-.3zm-85.7.4l.6.5c11.9-2.9 20.2-6 33-6.8-1.8.8-6.6.8-5.9 1.1 7.6-.5 6.4-2.3 14-1.6-10.7.5 6.7 0-3 1 13.5-1.7 27.7 1 36.4 2.2-2.1-.8 3.7-.2 4-.2 2.2.5 1.3.8-.5.4 4.4 1.3 5 2 4.2 2.3l-4.5-.8-4.6-.6a33.6 33.6 0 014 1c-4.7-.8-9.4-1.4-14-1.8-1-.2-1.4-.4-1-.5-3-.1-7.7-.9-9.4-.9 3.3.5 2.6.6.7.7h-5c0-.3 1-.5-.8-.6h-3.6l-3.8.3h6.4l-.8.3a172.1 172.1 0 00-45.8 6.2 37.9 37.9 0 01-7.8.3c2.5-1 5-1.8 7.2-2.5zm-36.3 19.7l2.6-2.3-.6.4c1.9-1.5 3.6-3 5.3-4.6.8 0 1.3.1 1 .7l-.8.7a82 82 0 01-7.3 5.7c-.8.3-1.8.9-3 1.6zm-7.6 5.2l4.4-2.4a72.8 72.8 0 01-6.2 3.6l-.7.7a5.2 5.2 0 012.5-2zM55.1 72.7l-.9.8c1.5-2.3 2-4.5 3.4-5.6 0 .3-2 5.8-3.9 10.7l-2.1 3.9c-1.1 1-4.8 6-9 12.2 3.8-7.2 8.2-14.6 12.5-22zm-29.3 44.7a2.4 2.4 0 000-.8c.6-1 .8-1.7 1-1.8l-1 2.9zm-4.3 31.3l-.2.5a26.7 26.7 0 01-1 2.8l1.2-3.3zm-6.1 19.8c1-3.3 1.7-6.5 2.7-9.4l-1.7 7.3.7-2.2q-2 7.8-3.5 16a47.4 47.4 0 011.3-8.3c0 .4-1 3.6-2 8.3v-1.6l2.5-10.2zm114 180.3l1.6.2c1.2.5 2.4 1 3.6 1.3-.2.3-.6.6-5.2-1.5zm7.5 2.3l3.1 1a14 14 0 01-2.3-.6zm229.5-174.3l-.3-2.2.9 3.7z" class="tmp-cls-1" transform="matrix(.9 0 0 .9 101 90)"/><path d="M157.8 4.6l-1.5.4-1.5.5a66.2 66.2 0 0010.4-2.1c-.2.2.2.2 1.1.3 5.3-.6 8-1.6 5.3-1.9l-1.8.4-3.7-.4c-.6.7-3.7 1.2-7.2 1.7a89.6 89.6 0 00-10.6 2c3.9-1.1 7.1-3.1 12.5-3l-.6-.5c4.5-.8 8.3-.3 10.8-1.2l-5.4.6V1c-3.7.5-8.5 1.6-12 1.8l-5 1.7c-2 .7-4.6 1.3-8.6 2.2l.2-.2c-2.5 1.3-6.3 2-9.9 3s-7.1 1.5-9 2.6c-1.9 2 8.7-2.5 11.5-2.8-3.2 1.5-6.8 2-3.8 1.8-7.4 3.1-5 .5-10.8 3.7l3.6-1c-2.6 1.5-7.3 3-9.8 4.8 0 1 4.5-2.1 10-3.8l-2.1 1.6L125 14l5.2-2.1c2.9-2.1-.1-1.2 6.5-3.9 2.6-.2 4.5 0 5 .6a37.2 37.2 0 016.1-2.1l10-1.9zM365.7 215.6c0 1.7-1 5.7-.2 5-.6 0 1.3-7.2.2-5zM364.3 221.7l-.1.6.1-.6zM365 217.3l-.8 3c0 .2.2.2 0 1.3zM362.4 126.2a25.3 25.3 0 001.7 4.1c.3-.5-1.1-2.8-1.7-4zM240.3 367c3-.6 7.2-1.2 11.4-2.3 4.1-.9 8.2-2.2 11.2-3.2s5-1.8 5-1.8c-9.2 3.5-18 6-32.8 8zM300.5 42.5l1.3 1.5 4.9 3.1 4 2.8a85 85 0 018.8 6.6 63.2 63.2 0 00-5.6-5.1A74.4 74.4 0 00309 48a80.2 80.2 0 01-9.8-7l1.3 1.5zM301 41c5 3.3 2.7 1 7 4.2l-1.6-2.3c.7 1.6-6.1-3.3-5.4-2z" class="tmp-cls-1" transform="matrix(.9 0 0 .9 101 90)"/><path d="M272.3 22.8l-3.9-2.2 3 1.9.9.3zM242.4 11.2l4.2 1.1-.4-.3-4.2-1 .4.2z" class="tmp-cls-1"/><path d="M140.4 5.9c6-1.2 5-1.9 8.6-2.8-6.8 1.6-8.3 1.6-16.3 4 6.3-1.5 8-1.8 7.8-1.2zM149 3.1l2.4-.5-2.4.5zM127.4 8.7c.1-.6-5.1 1.5-4 1.1a36.2 36.2 0 014-1zM155.7 12c-2.3.3-4.3-.3-6.1.8.6.2 4.5-.6 6-.8zM111 17.4c0-.1-.4-.1-1 .1l-1.3.6a20 20 0 00-2.8 1.4 10 10 0 012.8-1c.8-.3 1-.1.7.2.8-.5 1.6-1.1 1.5-1.3zM141.5 14.6l2-.6-2.5.6-2.4.8h.9zM50.8 63.5l1-1.7 1-1.7-1.5 1.9-1.4 2c.9-1 .1 1.4 1-.5zM49.4 64.8l.5-.8a8 8 0 00-.5.8z" class="tmp-cls-1" transform="matrix(.9 0 0 .9 101 90)"/><path d="M41 83.5l2.3-4.5-2.6 4.9.3-.4zM28.7 104.1l-.6.7-1.5 4.1.5-.8 1.6-4z" class="tmp-cls-1"/><path d="M36 290.7l.8 1a12.6 12.6 0 00-.9-1z" class="tmp-cls-1" transform="matrix(.9 0 0 .9 101 90)"/><path d="M83.5 336.6a44.3 44.3 0 017 3.6c1 0-1.5-1.6-1-2-7.4-4.4-9.5-3.3-16.8-7.6.5-.3 3 .6-1.9-2l1.3.6a30.4 30.4 0 01-6.6-3.8 21.2 21.2 0 00-5.2-3l.6-.5A53 53 0 0148 309.2l.3.2a82.5 82.5 0 01-6.2-8.1c-1-1.6-2.2-3.5-6.1-8.7l2 2.2 2.2 2.3c-2.4-4-3.7-4.3-5.6-7 .2.2.3-.4 1.3.7l-.7-1-.8-.8-.5-.5-.8-1c-1-1.4-1.4-2.2-2-3.2a116 116 0 01-4.5-7.8c-2.3-3.7-.2 1-.2 1.7a27.7 27.7 0 01-3.4-9c.5 1 2.2 4.7 1.5 2.2l-3.2-5.2c-2-7.7 3.4 5.1 5.4 8.6-2.9-7.6-4.4-9.6-7-17.5a36.6 36.6 0 011 5.2c-.6.6-2.8-7-4.6-12 .8 3.3-.1 1.5-1.2-.7a4.5 4.5 0 00-.5-.9c0-.3-.2-.5-.3-.8l.2.6c-.1 0-.2.2-.2.7 1.7 4.1 2.2 7.7 3.1 10.6.2-1.6 1 .8 2.1 4a83.8 83.8 0 003.5 9.3l1 2.2 1 2 .6 1.7c0 .4-.3 0-1.6-2.4 1 2 4.2 8.8 4.4 8l1.2 2.4 1 1.7a11 11 0 00.7 1l.6.8 1.6 2 4.3 6a8.7 8.7 0 01.6 1.3c.3.4.4.4.4.3l1.7 2.4 4.6 6.6c4 5.5 10.4 13.7 19.9 19l11.2 6 9.8 5.2 9.6 5-8.6-5c5 1.6-5-2.9-3.3-2.9z" class="tmp-cls-1" transform="matrix(.9 0 0 .9 101 90)"/><path d="M19.6 257.2a42 42 0 00-1-3l1 3zM99.8 346.6l-4.4-2.2c1.3.8 2.7 1.5 4.4 2.2zM13.2 243.3l-1.4-3.7-1.6-3.6c.7 2.6-1.3-1.6-1.7-2l1.9 4.5 1.8 4.5c.2-.2.9.6 1 .3zM12.7 245.8a10.6 10.6 0 011.3 2.3l-1.8-5.1c-.2 0-.2.7.5 2.8zM134.5 358l2.2.7-2.2-.7zM163.1 366.7a11.9 11.9 0 01-1.3-.3 4.2 4.2 0 01-1.5-.7c-.1-.2 0-.4 1.6-.3-8-1.2-18.4-4.6-20.4-4.4.2 0 .2-.2-.9-.7l-4.7-.6 4.2 1.6a63.6 63.6 0 01-11.7-3.3 69.6 69.6 0 01-9.6-4.2c8 2.9 4.3.5 15.5 5-.5-.5-2.4-1.6.2-.9-13.4-4.2-24.6-9.7-37.8-15.3 9.7 5.8-6.9-2.7-4.2-.2l5.7 2.5h-.6l6.8 3.2c-1.2-1.1-2.3-1.7-1.7-2 9 4.5 2.6 2 9 5.6l5.2 2.2 5.3 2-1-.1a6.5 6.5 0 001.7.5s9 3.4 18.3 6a172.1 172.1 0 0019 4.4l1.2.2a7.8 7.8 0 001.2 0h.8l-.3-.2zM232.7 367.2h.1zM226.6 368l1.5-.6-3.4.8-3.4.6 5.3-.3 5.4-.5.7-.8a24.4 24.4 0 01-6.1.8zM213.9 367.9l-.6 1.6c5.5-.3 5.2-1.2 2.2-1.5 5-.5 2.7.8 6.1-.2-.1-.5-6.3 0-7.7 0z" class="tmp-cls-1" transform="matrix(.9 0 0 .9 101 90)"/><path d="M173.4 367.2l1.5-.3-3.6-.3 2.1.6z" class="tmp-cls-1"/><path d="M175 367l3.6.4a2.2 2.2 0 00-1-.8zM193.7 368.7l-5.4-.5 5.4.5zM184.2 367.9l4 .3-4.1-.5z" class="tmp-cls-1" transform="matrix(.9 0 0 .9 101 90)"/><path d="M185.2 368.8l-1-1-5.6-.5c.6.6 1.2 1.3 6.6 1.5zM203.7 369.3c-.1.3 2.8.2 4.2.1-1.2 0-2.8-.2-4.2-.1zM302.9 328.8a9.6 9.6 0 00-1.8 1.3z" class="tmp-cls-1" transform="matrix(.9 0 0 .9 101 90)"/></g></g></g><path xmlns="http://www.w3.org/2000/svg" id="SvgjsPath14518" fill="#fff" d="M11-42.8l-8.4.3c-.8 0-1.3.4-1.3 1.1L.7-33H1v.3H.6L0-21C-.4-14.4-.5-7.8-.6-1.3-.6-.5-.1 0 .7 0l8.8-.2c.8 0 1.2-.4 1.2-1.2v-4.3c-.2 0-.4.2-.6 0H10V-6v-.2h.4c.2.1.3.2.3.4v-2.2h-.2l-.1-.3h.3V-11v.1l-.1.3-.3.2H10l-.2.2v-.6-.5l.1-.2h.2l.2-.1h.3v-1.8c-.3 0-.8 0-1.2-.2l.7-.5H10v-.5h.6l.2-6.9c.3-6.5.8-13.5 1.3-20 0-.8-.5-1.4-1.2-1.4zm-6.3 2.2l-.4.4c0 .2.2.3.3.3l.1.4c-.5 0-.8.3-.8.5 0 .1.2.2.6.2l-.6.1c-.2 0-.4.2-.5.3l.1.2c.1 0 .2.1.2.3l-.4.3v.1l.2.2c-.5 0-.8.3-.3.5l-.5.2-.5.2c-.1.2.1.5.4.6v.5l-.7.2h-.2l.2-.3-.1-.6v-1-.3-.5l.1-.2h.2c0-.2 0-.3-.2-.3v-.3l.1-.6.2-.5-.1-.8c-.2-.1-.2-.3-.2-.5l.2-.2.1-.2.5.1.2.3.2.1h.3v-.2c.1 0 .1-.1.2 0l.2.1h.4v-.3h.9l.3.1c0 .2.2.2.3.2 0 0 .2 0 .3-.2l.3-.1H7l.2.4h-.7c-.2 0-.3.1-.3.3l-.1.4-.4-.5a.7.7 0 00-.6-.4c-.2 0-.3 0-.3.2l-.1.1v.2zm.2 1.3c.2 0 .3 0 .5-.2v-.3h.3v.5H4.8zM2.6-33c.1.3.2.5 0 .6l.3.4c-.3.1-.2.3 0 .5l-.2.7v.9l-.3.2c-.1 0-.2.2 0 .7l.1.4v.3l-.2.6-.1.5-.1.3v.3l.2.6v.8c0 .2 0 .5-.2.8L2-24c0 .2.2.3.5.3h-.5v.9l.1.5-.2.4-.5.4.1.1H2a3 3 0 00-.4 1l.2 1h-.2v.6l-.2.5-.1.8-.1.3.3 1.4c-.2 0-.3 0-.5.2l.1.2.1.2H1v-.2H.8c0-.2 0-.3.2-.4L1-16l-.1-.4-.2-.3v-.3l.2-.4v-.5c0-.2 0-.3-.2-.3l.2-.2H.8v-.3s.1-.4.4-.7c0-.1 0-.2-.3-.4 0 0 .2-.1.3-.4.2-.5.3-.8-.2-1.2.3 0 .3-.3.2-.5.2 0 .4-.2.4-.4-.1 0-.3-.2-.3-.4l.2-.4.2-2.6-.3-.2.2-.2-.3-.3.1-.5c.2 0 .3-.1.3-.2-.1-.2-.2-.2-.3-.2l.3-.3.3-4.1-.2-.1v-.2c-.2 0-.2-.2 0-.3v-.4-.5-.3c.1-.3.1-.4-.2-.6l.3-.5h.8c.2 0 .4 0 .5.3-.2.1-.3.3-.5.3s-.3.2-.3.4 0 .4.2.5zm6 .3l.2.2h-.4l.2-.2zm1 .5s0-.2.2-.3l.3.1-.4.3zm.9 5.6h-.3-.2.1v-.1l.2-.1h.1zm-1 1.9l-.5.2a.9.9 0 01-.2-.5c.3 0 .5 0 .7.3zm-.8 1.7v-.1h.2v.1zm-2 .4c0-.2.2-.4.5-.4v.4zm2.5.6L9-22v.1c-.3 0-.5-.1-.5-.3l.1-.3H9l.2.2v.2zm-1.1 0v-.1-.1c.2 0 .4 0 .3.2l-.2.3H8zm-.4 1.4c.1 0 .2 0 .2.2l-.2.2-.3.2-.3-.3.1-.5.2.2h.3zm1 1v-.1h.5v.2zm-.2.6v.1h-.4v-.3h.4v.2zm.7 1.4l-.2.2h-.5c0-.3 0-.4.2-.4s.4 0 .5.2zm.6.8v-.2-.2c.3 0 .5.1.6.3zm-1.7.6v-.5h.8l-.1.4v.2l.1.2h-.5v.3h-.7V-16c.2-.2.7-.2.8-.3zm-.3.8c.3 0 .4 0 .4.3h-.4l-.1-.1h-.1l-.2.1-.1-.1H7l.1-.4.4.1v.1h.2zm-.3.7c.3 0 .5 0 .6.2h-.5v-.1zm-6.4.9s0 .2-.2.3l-.1.4v.7l-.2.6V-14c0-.2.1-.2.3-.3l.3-.3zm7.4-.4h-.1l-.3-.2.3-.1H9v.2c.2 0 .2.1.2.2l-.2.1h-.2v-.2h-.1zm-.8-.1l.1.3h-.4v-.1zm3 .4v.3l-.2.2h.1l.1.2v-.7zm-2.8.4c.2 0 .3 0 .3.2-.1.2-.3.2-.4.2l-.2-.2.3-.2zm-1.4 1l-.2-.2L6-13h.1l.1-.1.1-.1h.4l.2.1.2.1.2.1-.1.4H7l-.2.1s-.2 0-.3-.2zm1 0v-.4l1.2.1zm-1.5 1L6-12h.6l-.2.4c-.2 0-.4 0-.5-.2zm2.2.3s-.2 0-.2-.2l.3-.3h.5c0 .2 0 .3-.3.5zm1.6-.2v.3c-.1.1-.3.2-.5.1 0-.1 0-.3.2-.5h.3zM.4-11c0-.2 0-.3.2-.4v.3l-.2.1zm6 .7v-.2l-.1-.2.6.2h-.1l-.1.2h-.2zm-.3 0l-.7-.1.7-.1zm1.7 0h.3v.2h-.3zm-.8 1l.2-.2.3-.1h.3l.1-.1h.6v.2l-.1.1h-.5l-.3.3C7.3-9 7-9 7-9.2zm3.3-.3l.4.1c0 .3-.2.4-.5.4H9.9v-.2zm-4 .3h-.1L6-9l-.5-.1.2-.2zm2.4-.2H9v.2h-.3zm-1.8.5V-9h.5v.3h-.6V-9zm2.7 0v.2h-.4V-9h.4zm-1.5.7h-.3c0-.2.3-.3.6-.4l.1.4zm-2.7-.2h.5v.2h-.5zm3.1.6v.2h-.3v-.2zm1 .5c-.1 0-.2-.1-.2-.3h.2c.3.1.3.2 0 .3zM5.8-7s-.2-.1 0-.2v-.1l.5.1h.3v.2l-.3.2H6L5.7-7zm3.3.4V-7l.2-.1v.1l.4-.1.3.1v.5H9zm-8.7.4l-.2-.2.3-.2zm8.6-.3h.3l-.3.4-.2-.1zM7.4-6c.2-.2.6-.3 1-.2-.1.3-.6.4-1 .4zm.5.3l.5.1-.2.7h-.3v-.4c-.2 0-.2-.2 0-.4zm.8.7v-.3l.5.2h.6c-.1.2-.1.3-.4.3h-.1L9-5h-.3zm-2 .2H6V-5h.6zm3.4.3c-.1.3-.3.6-.7.7L8.9-4c.1-.2.4-.6.7-.6zM8.8-4h-.3l.3.1v.7l-.3.2h-.3v-.2-.3h-.4v-.3c0-.1.1-.2.3-.2v-.3h.7zm.4.7l-.1-.4c.3 0 .5 0 .7.2l-.6.2zm1 0L10-3h-.5l.2-.4h.4zM42.6-42l-7.3-.1c-.8 0-1.2.3-1.2 1.1l-1 16.2-5-13.3H28c-1-2.4-3-4.2-5.7-4l-5.8.1c-.8 0-1.2.5-1.2 1.2l-1.1 12.7c-.6 6.5-.8 11.8-1.1 17.8l-.5 9c0 .8.5 1.3 1.2 1.3h8.2c.8 0 1.3-.4 1.3-1.2l.5-21.6 2.3 6h.8l-.7.4L31-3.6h.1L32-1c.2.6.6.8 1.2.8l8-.2c.9 0 1.3-.4 1.3-1.2v-13.9h-.3l.2-.1h-.2.3v-.2H42l-.6-.1h-.3v-.2h.7l.4-.1h.3l.1-2.8v-2.7c.2-6.4.6-12.6 1.2-19 0-.6-.5-1.3-1.2-1.3zm-22.3 8.6l.1.3-.4-.1c0-.2.1-.2.3-.2zm-1.1 3h.3v.1h-.3zm1.3.4l-.1-.1v-.3h.4c0 .2-.1.3-.3.4zm2.9 0h-.1l-.2.1-.1-.5.4.4zm-1.4.4h-.2l-.2-.2H21v-.3h.4v.2h1.1v.1a1 1 0 01-.5.2zm.5-.2h.5l-.1.3-.4-.1zm.8.3v-.1-.2c.2 0 .3 0 .5.2l-.5.1zm-2 .1l.6.1c-.3.1-.5 0-.6-.1zm-.4 3.5h-.5v-.3h.5zm2.7.3v.2h-.6v-.2zm.2 2.2l-.3-.6c.4.1.5.3.3.6zm4.4-.5l.3.1-.8.6-.1-.2c.6 0 .6-.2.6-.5zm-5.6.1h.5v.4h-.4zm4.4.5h.3v.4H27zm-5.4.2h.6c-.1.3-.3.4-.6 0zm6.5.3v.2L28-23v-.2l.2.2zm-4-.1h.9-.9zm-.7.7h-.6v-.3h.6zm-3.3.4v-.3c.2-.2.4-.2.7-.2v.5zm8.5-.3v.3h-.3v-.3zm-1 .6h.4v.2h-.5zm5.7 0h.1v.2h-.1zm-13.1.6v-.4c.5.1.6.3.3.5zm.7 0h.4v.2H21zm7 .6v-.1-.2h.2l.2-.2v-.2l.2.8h-.4zm-1.8.5h-.4l.1-.3h.3v.2zm-5.5 0l.3.3h-.6l.3-.4zm16 .1h-.2v-.2h.2zm-14.1.8h-.4v-.4h.4zm-2.7 0h-.5v-.4h.5zm9.4.6v.4c-.4 0-.6-.2-.6-.4zm1.4.8h-.1l-.2.1c-.3 0-.5-.2-.5-.4l.8.3zm-2.3 0h.4l-.3.4-.3-.1zm1.1.2l-.7.2v-.2l.6-.2zm5.6-.2h.2l-.2.3-.2-.1zm-4.8.4l.5-.2v.3h-.4zm-11.8.5c0-.2.2-.4.5-.5l.1.3-.6.2zm9.4-.1h-.1-.3l-.1-.1-.2-.1c.3 0 .4-.1.4-.2.2 0 .3.1.5.3zm-7.5 0l-.5.2v-.2l.4-.2zm-1.1.3l.6.1.2.1c-.2 0 0 0 .5.3h-1.2zm9.3 1h-.1v-.2c.2 0 .3.1.4.3a1 1 0 00-.3 0zm6.4.2h.2v.3c-.2-.1-.3-.2-.3-.4zm-6.2 0l.5.1h-.1l-.2.2h-.2zm2.4.1h.2v.4h-.2zm-10.8 0h.6v.3h-.6zm9.4.8l-.2.3-.3-.2.2-.1zm-8.7.5h-.4v-.4h.4zm7.5 0l.3.2h-.4c-.2 0 0-.2.1-.2zm2.6.6l.2.1v.2h.4l.4-.2-.5.4-.3.3-.3-.3-.2-.5h.3zm-2.1 0h.4l.1.2-.4.1zm-8.7.6l-.1.3-.4-.3.1-.2h.4zm12.4.1l.1.2-.4.1h-.6l-.2.2-.1-.1-.3-.3h1zm.6.2l.1.3-.2.2-.2-.4zm-4.7.3v-.3c.2 0 .4.1.5.3h-.5zm-5.3.5h-.5v-.3h.5zm8.3 0v-.2h.5c.3 0 .4.1.4.2v.2a1 1 0 01-.9-.1zm-1.9-.2h.3v.3h-.3zm1 .6l-.2-.4h.3c.3.2.3 0 .5.3zm4.5.5v.3H35zm-2.8.2l.3.8h-.2l-.4-.8zm-2.2.3h-.5v-.3h.5zm-.1.6H30l-.1-.1c-.1 0-.3 0-.3-.2l.7-.1c-.2.1-.2.3-.1.4zm4 1A1 1 0 0134-9h-.8l.2-.2v-.1c.3 0 .3 0 .4-.2h.4v.3c0 .2.3.4.8.7-.4 0-.7.1-.8 0zM32-8.8l-.3-.5c.4.2.5.3.3.5zm1 1l.4-.4v-.2-.1l-.2-.4.3.1h.2l.2.4-.1.1-.1.1-.2.1-.6.2zm-12.6-.6H20v-.4h.4zm10.9.8h-.1l.6-.3c.3 0 .4 0 .5-.2h.6l-1.3.7-.3-.2zm4.7-.6h.4l-.8.7-.2-.3c.6 0 .6 0 .6-.4zm-15.5.5V-8l.6.1-.6.3zm14.9.8v.3H35V-7zm-13.6.4h-.6v-.3h.6zm12 .3h-.2l-.1-.1.4-.4.4.4zm.8-.1h.2v.1l-.1.1c-.2 0-.2 0-.1-.2zm1 .6H35l-.3.3.2-.4h.6zm.8 0c-.2 0-.3.2-.4.3l.4-.4zm-4 1l-.3.2-.5.2v-.5h.4l.6-.1-.3.2zm13.5 3.4L48-39c0-.6.4-1 1-1.2l6-1.5c3.2-.7 6.4-.9 9.2-.6 5.4.6 9 4.3 10.3 8.7 1.4 4.4 1.6 10 0 16.2a26.5 26.5 0 01-7.8 13.1c-3 2.7-6.4 3.7-9.1 4l-4.1.3h-6.4C46.4 0 46-.6 46-1.3zM64.7-40v-.1l-.1-.2-.2-.1-.2-.1-.4.4h.4zm-13.4.5l.1.2v-.1l-.1-.1zm5.7 0h-.3c-.2.2-.2.3-.2.5l.5.1v-.1-.5zm7.4.5l-.1-.3v-.2h-.5c-.1 0-.2 0-.2.3 0 .2 0 .3.2.4l.6-.2zm-10.9.3l-.6-.3H52.6v.1l.1.2h.8zm6.6 1.7h.7l.1-.4h-.6zm10.4 4v-.5l-1 .2s-.1.2-.3.2v.3c0 .3.3.3.5.3.4 0 .8 0 .8-.4zm-3 .1v-.2.2zm-10.2 1.2v1l-.8.6.4 1 .3.2-1 14.3h-.5l-.4.4v.3c0 .2 0 .3.2.4 0 .3.3.4.6.4l-.1 2.5c3.7-.7 5.7-2.3 7-5l1.6-4 .9-4.4.1.1c.1.2.2.2.3.2.2 0 .6 0 .6-.4 0-.1-.2-.3-.7-.4l-.3.3c.2-2.8-.2-4.4-.9-6.3-.7-2-2.2-2.1-4.3-1.8l-3 .6zm-8.2 5v-.4l.1-1.7v-.6l.4-1.3-.3-.8-.7 5.4s0-.1.1 0l.2-.1.2-.5zm21.4-4.4l-.4-.1h-.3l.2.2v.2zm-4.4.4h-.5l.4.2.1-.1zm5 .8L71-30s-.3 0-.3.2c0 .1 0 .3.2.3l.3-.3zm-2.2.5l-.2-.1-.2-.1-.1-.2-.1-.1h-.5c0 .1 0 .2-.2.3.4 0 .7.2.7.6 0 0 .6-.1.6-.4zm-1.4-.3H67c-.1 0-.3 0-.3.2h.1v.1h.4l.3-.3zm3.4.8v-.3-.2c-.2 0-.3.2-.3.3 0 .1.1.2.3.2zm.4 2v-.2l-.4-.1s-.2 0-.2.2l.1.2h.5zm-4.7.6v-.5-.1h-.2l-.4.1-.2-.1c0 .2.1.3 0 .4l.6.3zm2-.3h-.1l-.2-.1-.3.3c0 .2.1.3.4.2l.2-.3v-.1zm3.8.7v-.2H72.1c0 .2.2.3.3.2zM68-24.3l-.5-.3v-.2l-.2-.3a.7.7 0 00-.6-.3h-.1l.2.2v.4c0 .2.2.8.6.8h.4l.2-.3zm1.3.8h.3v-.2c.1 0 0-.2 0-.2l-.5.1.1.2v.1zm-.5.4h-.1v.1zm-.3.9v-.3l-.1-.1h-.5v.5h.4l.2-.1zm.4.3h-.2l-.1.1.3.3v-.4zm-1.2.4H67h.1l.2.1.2-.1zm5 .5c0-.1-.1-.2-.3-.2v.2h.2zm-22.9.4c-.2-.3-.5-.4-.7-.5v.5h.7zm19.9.2v-.2l-.2-.2-.1-.2H69l-.1.3v.3h.6zm-.8 0l-.1-.2h-.5l.2.4h.1v-.1H68.9zm1.7 2l-.2-.1v-.1L70-20h-.2-.3l.2.3v.2l-.1.3v.9c0 .1 0 .2.4.4h.2v-.4l.3-.3zm1-1.1c0-.1-.1-.4-.6-.4h-.1v.5l.3.1h.2l.3-.2zm-.8.7h-.3l.2.2v-.1h.1zm-2.3 1.1h.6v-.1l-.1-.1-.3-.1v-.1s0-.2-.2-.3l-.1.1-.1.1v.4zm1.8.4v-.3h-.1v.3zm-2.5 0l-.3-.1h-.2-.1v.2l.1.2c.2 0 .3-.1.5-.3zm1 1c-.1 0-.3 0-.4-.2l-.3-.2c-.2 0-.3.3-.3.5 0 .1.3.3.4.2l.5-.2zM54.1-15c0-.2 0-.3-.2-.3h-.4c-.1 0-.1.2 0 .2v.2h.3l.3-.1zm12.3 0v.2c.1 0 .1-.1 0-.2zm-.5.2l-.3-.1v.2h.2l.1-.1zm3.5.8v-.2l-.1-.2-.2-.1h-.5c-.1 0-.2 0-.2.2 0 .3.1.4.5.4l.5-.2zm.7 1.8v-.3h-.4v.2zm-22.4.3l-.1-.1v-.1c-.2 0 0 .2 0 .2zM54-7.3c.1-.1 0-.3-.2-.3v.3h.2zm-5.6.6h.3l-.3-.1zm2.3.4c0-.4-.4-.5-.5-.5-.3 0-.5 0-.5.3v.2h1zm-1 1.5l-.2-.4v-.3H49l-.5-.1v.2l.1.2.2.7c0 .2.2.3.3.5 0-.2.2-.4.4-.5l.2-.3zm9.8 1.6l-.1-.2h-.1l-.2.1h.4zm-10.1.4L49-3h-.3-.3c-.1 0 .3.3.5.3h.3l.2-.2zm39.6-40l-8.4.3c-.8 0-1.2.4-1.3 1.1L79-33h.2l-.1.3h-.2L78.1-21l-.6 19.7c0 .8.6 1.3 1.3 1.3l8.8-.2c.8 0 1.2-.4 1.2-1.2v-4.3c-.2 0-.4.2-.6 0V-6l-.1-.2h.5c.2.1.2.2.2.4v-2.2h-.2v-.3c0-.1.2-.1.2 0V-11v.1l-.1.3-.3.2h-.1l-.3.2v-.6-.5l.1-.2h.2l.3-.1h.3v-1.8c-.4 0-.8 0-1.2-.2l.6-.5v-.5H88.9l.1-6.9c.3-6.5.8-13.5 1.3-20 0-.8-.5-1.4-1.2-1.4zm-6.3 2.2l-.4.4c0 .2.3.3.3.3l.1.4c-.5 0-.8.3-.8.5 0 .1.2.2.7.2l-.7.1-.4.3v.2c.1 0 .2.1.2.3l-.4.3.1.1.1.2c-.4 0-.7.3-.3.5l-.4.2-.6.2c0 .2.2.5.4.6v.5l-.7.2h-.2c.2-.1.2-.2.2-.3v-.6c-.2-.4-.2-.7-.2-1l.2-.3v-.5-.2h.2l-.1-.3-.1-.3c0-.3 0-.4.2-.6l.1-.5c.1-.4 0-.7 0-.8-.2-.1-.2-.3-.2-.5l.1-.2.1-.2.6.1c0 .1 0 .2.2.3l.2.1h.2l.1-.2s0-.1.1 0l.2.1h.4v-.3h.9l.3.1c.1.2.3.2.4.2l.2-.2.3-.1h.3c0 .1.1.1.4 0 .2.1.2.3.2.4h-.7c-.2 0-.3.1-.2.3l-.2.4-.3-.5a.7.7 0 00-.7-.4c-.1 0-.2 0-.3.2V-40.6zm.2 1.3c.3 0 .4 0 .5-.2l.1-.3h.3V-39.6c-.2 0-.2 0-.2.2h-.6zM80.8-33c0 .3.2.5 0 .6l.2.4c-.2.1-.2.3.1.5-.2.1-.3.4-.3.7v.9l-.3.2c-.1 0-.2.2 0 .7l.1.4v.3l-.1.6-.2.5v.6l.1.6v.2l.1.6c0 .2 0 .5-.2.8l-.3.6c0 .2.2.3.5.3H80v.9c0 .3.2.4.2.5l-.3.4-.5.4.1.1h.7a3 3 0 00-.4 1l.2 1h-.3v.6l-.2.5v.8c-.1 0-.2.1-.2.3l.4 1.4c-.2 0-.3 0-.5.2v.2l.2.2H79v-.2l.1-.4.1-.3v-.4l-.3-.3v-.3l.2-.4v-.5c0-.2 0-.3-.2-.3l.2-.2H79v-.3s0-.4.4-.7l-.4-.4.4-.4c.1-.5.3-.8-.2-1.2.3 0 .2-.3.2-.5.1 0 .3-.2.3-.4-.1 0-.3-.2-.3-.4 0-.1 0-.2.3-.4l.1-2.6-.3-.2.2-.2-.2-.3v-.5c.2 0 .3-.1.3-.2 0-.2-.2-.2-.3-.2l.3-.3.4-4.1-.2-.1c0-.2-.2-.2-.2-.2v-.3l.2-.4v-.5-.3c0-.3 0-.4-.2-.6l.3-.5h.7c.3 0 .5 0 .5.3-.1.1-.2.3-.4.3-.3 0-.3.2-.3.4s0 .4.2.5zm6 .3l.1.2h-.3l.1-.2zm.9.5s0-.2.2-.3l.4.1-.5.3zm1 5.6h-.3-.3.2v-.1l.2-.1h.1zm-1.1 1.9l-.4.2a.9.9 0 01-.2-.5c.2 0 .4 0 .6.3zm-.8 1.7v-.1h.3v.1zm-2 .4c.1-.2.2-.4.5-.4v.4zm2.5.6l-.1.1v.1c-.3 0-.5-.1-.5-.3v-.3h.5l.1.2v.2zm-1.1 0v-.1-.1c.2 0 .4 0 .4.2l-.3.3H86zm-.4 1.4c.2 0 .3 0 .3.2l-.3.2-.3.2-.3-.3.1-.5.3.2h.2zm1.1 1v-.1h.4v.2zm-.2.6v.1h-.5v-.3h.4v.2zm.6 1.4l-.2.2h-.5c0-.3 0-.4.3-.4.1 0 .3 0 .4.2zm.7.8v-.2c-.1 0-.1 0 0-.2.3 0 .5.1.5.3zm-1.8.6v-.5h.8v.8h-.4v.3h-.8V-16l.9-.3zm-.3.8c.3 0 .5 0 .5.3h-.5v-.1h-.2l-.1.1-.2-.1h-.2l.1-.4.5.1-.1.1h.3zm-.3.7c.1 0 0 0 0 0 .3 0 .5 0 .7.2h-.5l-.1-.1zm-6.4.9l-.1.3-.2.4v.7l-.2.6.1-2.1c0-.2 0-.2.2-.3l.3-.3zm7.5-.4h-.2l-.3-.2.3-.1H87.1l.1.2V-14.1H87l-.1-.2h-.1zm-.8-.1v.3h-.3v-.1zm2.8.4v.5l.2.2v-.7zm-2.6.4c.2 0 .3 0 .2.2-.1.2-.3.2-.4.2l-.2-.2.4-.2zm-1.4 1l-.2-.2c-.1 0-.2 0-.3-.2l.2-.1v-.1h.4l.2.1.2.1.2.1v.4H85l-.1.1c-.2 0-.3 0-.3-.2zm1 0v-.4l1.1.1zm-1.6 1l.1-.3h.6l-.2.4c-.2 0-.4 0-.5-.2zm2.2.3s-.2 0-.2-.2l.3-.3h.5c0 .2 0 .3-.2.5zm1.7-.2v.3c-.2.1-.3.2-.6.1 0-.1 0-.3.2-.5h.4zm-9.4.6c0-.2 0-.3.2-.4v.3l-.2.1zm6 .7l-.1-.2v-.2l.5.2-.2.2h-.2zm-.4 0l-.7-.1.7-.1zm1.8 0h.3l-.1.2h-.3zm-.8 1l.1-.2.3-.1h.4v-.1h.6v.2l-.1.1H86l-.3.3c-.3 0-.5 0-.6-.2zm3.2-.3l.4.1c0 .3-.2.4-.5.4H88v-.2H88zm-4 .3h-.1l-.1.1H84l-.5-.1.3-.2zm2.4-.2h.4v.2h-.4zm-1.8.5V-9h.6v.3h-.7L85-9zm2.8 0v.2h-.5V-9h.4zm-1.5.7h-.4c.1-.2.3-.3.7-.4v.4zm-2.8-.2h.6v.2h-.6zm3.2.6v.2h-.4v-.2zm1 .5h-.1l-.1-.3h.2c.3.1.3.2 0 .3zM84-7h-.2v-.2l.1-.1.5.1h.3l.1.1v.1h-.2l-.1.2H84l-.1-.2zm3.3.4V-7l.1-.1.1.1.3-.1.3.1v.5h-.8zm-8.8.4l-.1-.2.2-.2zm8.6-.3h.3l-.3.4-.1-.1zm-1.4.5c.2-.2.5-.3 1-.2-.2.3-.6.4-1 .4zm.4.3l.5.1-.2.7H86v-.4c-.1 0-.1-.2 0-.4zm.8.7l.1-.3.4.2h.6c0 .2 0 .3-.4.3l-.3-.1H87zm-2 .2h-.6V-5h.6zm3.5.3c-.2.3-.4.6-.8.7L87-4c.2-.2.5-.6.8-.6zm-1.4.6h-.3l.3.1v.7l-.2.2h-.4v-.2-.3H86v-.3c0-.1 0-.2.2-.2l.1-.3h.6zm.4.7v-.4c.2 0 .5 0 .6.2l-.6.2zm1 0L88-3h-.4l.1-.4h.5zm30.9-39.2l-25 1.1c-.8 0-1.2.4-1.3 1.1a366 366 0 00-2 39c0 .8.5 1.3 1.2 1.3l25.7-1.3c.8-.1 1.2-.5 1.2-1.3v-7.6c0-.7-.6-1.3-1.3-1.3l-16.3.5.3-5 13.3-1.8c.7-.1 1-.6 1-1.2v-6.4c0-.7-.5-1.2-1.2-1.2v6h-.2v-6l-12.6.7.4-5 16.8-1.9c.7 0 1-.4 1.1-1.2l.2-7.2c0-.8-.5-1.3-1.3-1.3zm-17.4 1.1h.1v.2zm4 .6l.1.1c-.2 0-.3 0-.1-.1zm1.1 1v.3-.3l-.5-.3h-.3l-.1.3.1-.2c.2-.2.3-.3.6-.3.2 0 .3.2.3.3v.2zm9.2-.2h-.1v-.2zm-17.3 0h1.2v.2h-1.2zm4.4.2h-1.3l.3-.2h1zm-2 0h.1-.2zm10 .3h-.4v-.3h.5zm-7.2 0h.1l-.2.3.1-.3zm4 .3h-.2v-.1h.2zm-9.2 1h-.2v.3h-.3v-.2-.2zm6.9.8h-.2l-.2.1H104.5c.1-.3.3-.5.5-.6h.4l.3-.2-.4.3v.1l.4.3zm2 0h.2v.2h-.1zm-3.8.6h-.3c0-.2.2-.3.5-.4l.2.4zm2.5.4l.2-.3.3.3zm2.3.2c0-.2.2-.3.5-.4l.1.1.1.2zm-3.5.2l-.2.1h-.2l-.3-.2c0-.3.1-.3.3-.3.1 0 .3 0 .5.2zm2.5.3h-.3l-.1-.3.2-.1h.3c.2 0 .2.2.2.4h-.3zm-12.9-.1v-.1h.1zm11.5.4h-.5v-.1l.1-.3h.2c.3 0 .3 0 .3.2l-.1.2zm9-.1v-.3zm-9.2 2.9v-.2zm-4.9 0v.1h-.1l.1-.1zm-.4 3l.2-.2v.3h-.3l.1-.1zm0 1.1h.4zm.7 2.2h.3v.3h-.3zm.2 1.1v.4l-.3.1c-.3 0-.5-.1-.5-.3l.2-.3H101.4l.3.1zm4.7.3zm8.6.3l.4-.3.5.2v.5l-.2.3h-.4l-.3-.1zm-8.3-.2zm-1.3.5c.2 0 .1.3 0 .4l-.4-.3zm1.5.3h-.3l.2-.3h.2zm-3.9 0c.3.1.3.3 0 .3zm-.7.6h.5v.3l-.1.1h-.3l-.3-.3h.2zm2.9 0l.2.2h.2-.4l-.2-.2h.2zm-4.2.2h.4v.2h-.2l-.5-.1c-.2 0-.2-.1-.2-.3l.5.2zm0 0zm4 .6v-.3h.5v.5h-.6v-.2zm-4.4.5H100.9h-.2c0 .2-.1.1-.1 0zm-.7 1.2h-.4s0-.2.2-.3h.3l.3.2h-.4zm.8.3h-.5c-.2 0-.3 0-.3.2l-.2-.2.2-.1h.8zm-2.6 0h.2l.2.1c-.1 0-.2 0-.2.2H98c0-.1 0-.3.2-.3zm16.6.1l.2.6.1.4v.2l-.3.3zm-14 1.2h-.5v-.3l-.5-.3.5-.2h.8c-.2.3-.4.5-.3.8zm-1.7-.3v-.1H99.3c-.1.2-.2.2-.3 0zm2.6-.1l.2.2-.4.1c-.3 0-.4 0-.5-.3zm-2.5.2c.2.1.3.3.3.4l-.4.1v-.2c-.2 0-.1-.2.1-.3zm2.8 1c-.8.4-.8.3-1 .3h-.3l-.3-.1.3-.2.4-.2-.2-.2v-.1h.3c.1 0 .2.1.2.3 0-.2.1-.2.3-.2h.3zm-2.2-.2h.2c0 .2.1.2.3.3v.8h-.4l-.5-.1v-.4c0-.1 0-.6.4-.6zm-.9.6h-.4l.3-.3zm13.4 0h.8v.1h-.8zm-10.6.3h-.4l.1-.2h.4l-.1.2zm-3.4 0v.3H98s0-.2.3-.3zm2.8.4l.1-.2c.2 0 .3.2.3.3h-.4zm-1.8 0h.3l.2.2-.2.2H99s0-.2.3-.4zm.7.6v-.2c0-.2.1-.3.3-.3v.4zm1.1 0l-.4.2-.3-.2.1-.1h.3l.5-.1.1.1.1.1zm-.8.6v-.2l.5.1-.2.1zm-.2 0c0 .2-.2.2-.3.2l-.2-.3.5.1zm-.7.4h.7l-.1.3-.7-.1.1-.2zm-.6.4l-.3-.2h.4l.3.4c-.2 0-.3 0-.4-.2zm.7.6v-.3l.3-.3v.6zm1.5-.1v-.3h.4l-.3.3zm-3.2-.2h.3l-.1.3-.4-.1.2-.2zm2 .4v.2h-.3v-.2zm.2.1h.3v.1l-.3.2-.1-.2zm.8.8h-.4v-.2h.4zm-3.5.1h.4c0 .2-.1.3-.3.4-.1-.1-.1-.2 0-.4zm1.3.5v-.3H98.9v.3h-.2zm-1.3 1v-.3l.3-.1.2.1-.2.2h-.3zm1.7 0l-.2-.1h.3zm-.9.5l.3-.2v.4s-.2 0-.3-.2zm5.4 2.2h.5v.2h-.5zm2.4.2c.2 0 .3 0 .3-.2l.1.3v.2l-.2.2h-.3c0-.1 0-.2-.2-.3 0 0 .2 0 .3-.2zm3.6 0v.2zm-5.3.3h-.3v-.2h.3zm2.9 0l.1.2-.2.1zm-3.6.4h.2c.2 0 .1.1 0 .2l-.2-.1zm2.1.2v.2h-.2v-.3h.2zm1.2.1V-8h-.3l.3-.3zm-8.3 1l-.3.2v-.3zm.8 0h.4v.1c-.2 0-.3 0-.3-.2zm3.3.1l.2.3h-.2v-.3zm6.3.2l-.1.1-.1.2c-.2 0-.3-.1-.3-.3zm-2.7.3h-.1V-7h.1zm-2 .2l-.1-.2h.1l.2.1h-.1zm-5.2 1h-.5V-6h.5zm-5.6 1h-.6V-5h.8c-.2 0-.2.2-.2.4zm22.3-.4l.6.2v.2l-.7-.1zm-18.4.4h-.6v-.3h.6zm4.5 0v.3h-.4v-.3zm3 .2h.6l.4.3-.1.3-.1.2h-.9v-.3-.5zm-9.5 0h.7v.3h-.7zM98-2.6c0-.3 0-.8-.2-1.3l.5-.2c.3.4.1 1.3-.3 1.5zm-6.1-.8h.7s-.6.3-.7 0zm2.6.5h-.2v-.3h-.5v-.2h.5v.2h.2zm6 0l-.6.6c0-.2-.3-.5-.4-.5h.3l.3-.2h.7s-.2 0-.3.2zm-3.8.4l-.1.3-.8-.1V-3h1l-.1.4zm11.1-.2h.5v.1h-.5zm7.8 1h.2-.4.2zm-19.7.3h-.5v-.3h.5zm61 0L152-27c-.5-3-1.3-6.2-1.4-6.7l-1.3-4.2c-1-2.1-2.3-4-4.7-4.3l-3.5.1-4.1.7c-.5.2-.8.4-1 .8a576 576 0 00-5.7 13.8c-1.3 3.4-2.6 7-3.7 10.4-1.5 4.8-3 9.7-4.2 14.4-.1.9.3 1.6 1.2 1.6l9 .2c.6 0 1-.3 1.2-.9l1.3-5.6 9.3-1.8.6 7.4c0 .7.5 1.1 1.2 1.1h9.2c.8 0 1.3-.7 1.2-1.5zm-19.4-38.4h.2v.4h-.2zm7.4 1.5h.2v.5h-.2zm-.5 1h.3v.5l-.3-.2zm-6.6.3l-.3.7v-.8l.2.1zm7.8.1l-.2.3h-.2l-.1-.2v-.3l.7.1-.2.1zm-.6 0l.1.2-.1-.1zm1.3.6l.5-.1-.1.1c0 .2.1.3.3.4l-.3.1h-.8c0-.4.2-.5.4-.5zm-.2 1.6c.2 0 .3 0 .5.2v.1l-.2.2-.3-.1-.3-.1c0-.2.2-.3.3-.3zm-5 .4v.2zm.9.5h.2s.2.1.2.3h-.6v-.3zm5.1 1c.2 0 .3.2.3.4l-.2.2h-.4l-.1-.2.1-.1.3-.2zm-13.4 2.5v1l-.4-.7c0-.2.5-.5.4-.3zm4.2.8v-.2l.4.2h-.4zm-4 1v.7h-.3v-.7zm7 .2l.1.2v.1l-.1.5c-.5.3-.7.2-.9-.3.3-.4.6-.5.9-.5zm6.9.1v.1h-.4v-.1zm.2 1h-.4v-.2c.3 0 .4.1.4.3zm-9.5 9.9l3-9.9a87.6 87.6 0 011.2 6.8l.4 3zm1.9-9.4l-.2.4h-.1l.2-.5zm5.6.2l.1.1h-.3zm-7.6 4.5l-1 2.6-.2.6-.4.6c-.2.2-.4.6-.4 1 0 .3-.2.7-.4 1l-.2.2h-.3l-.1-.4c0-.3.2-.5.3-.8l.4-.8v-.6c.2-.4.2-.6.6-1l.6-1 .2-.9.5-1.3.1-.5c.2 0 .2-.2.2-.2l.3-.4.3-1.1.3-.3.3-.2.3.1-.6 1.3-.1.5-.7.8zm8-2v-.3h.5l-.1.1v.1zm1.3.4v-.2l.3.2zm-2.6.3h.3c0 .1-.2.2-.3 0zm3.5 1.9c0 .1 0 .2-.3.2zm-4.6.1l.2.1.2.2h-.4zm2.6.9h-.1v.2h-.6c-.1-.2 0-.3.1-.4h-.3l.1-.4c.5 0 .7.2.8.6zm1.6-.5v-.1h.2l.1.1-.3.1zm-1 0h.5l-.2.3-.2-.2zm1 .5h.4c.2 0 .4.1.5.3-.3.1-.7.2-1 0zm-1.7 1c0-.1.1-.3.3-.3h.2l.2.1v.3h-.4-.3zm-2 0h-.4v-.1h.4zm5 .1a1 1 0 00-.4.4l-.5.2c.2.3.4.4.6.4.2 0 .3.1.4.3h-1.1l-.5-1c0-.2-.1 0 .6-.5h.7l.1.2zm-14.7.4s0 .3-.2.5l-.2-.4.1-.6h.3zm11.9 0h-.1l-.2.1v.1l-.3-.2v-.3h.5v.4zm.7.1l.1.1s0 .4-.2.6l-.1-.7h.2zm-1.5.4h.9s-.2.3-.4.3l-.5-.1h-.3l-.2-.2h.5zm-.6.9v-.3h.1zm.8.6v.1l-.4-.1v-.1l.1-.2.4.1v.2zm-1 0l.2-.1h-.1zm3.4.6h-.3v-.1h.2l.2.1zm-1 1v-.5c-.2-.3-.3-.5-.5-.5l-.2-.1c.3 0 .6 0 1 .3l.1.3.1.4zm-2.5-.5h-.2v-.2h.2zm5.2.4h.3v.1h-.3zm-3.8.1v.3h-.3v-.3zm-1.8.5h.2-.2zm-1.8.4h-.3v-.1h.3zm1.3.8h-.4l.4-.3v.3zm2 .2l.3-.4.2.1.2.3-.4.4-.6-.1.3-.3zm1.6 1.5v.2h-.3v-.2zm-.8.2v.5c-.2-.2-.3-.3-.3-.5zm2.5.2c.2 0 .3 0 .3-.2v.5l.3.2.2.1h-.3l-.4.1c-.4 0-.6-.4-.6-.5zm-13.5.6h-.6v-.3h.7zM134-9.8h-.2c-.5 0-.8-.4-.8-.6 0 0 .1-.5.6-.5l.8.3v.4l.2.4zm11-.8h-.2v-.3h.2zm6.4-.2h.3v.1h-.3zm-6 .2h1v.2h-.7s0-.2-.2-.2zm-3 .2h-.1l.2-.2v.2zm10.3 8.2c-.2 0-.7-.5-.7-.7l.1-.3a.8.8 0 01-.4-.5v-.5c-.1 0-.2 0-.3-.2v-.1c-.2 0-.2-.1-.3-.2l-.2-.2h.1v-.9H149.7c.6-.3-.4-.7-.7-.8V-7l.1-.3v-.2h.2v-.2c.1 0-.1-.2-.3-.1l.1-.5c0-.1.2-.3.6-.3h.4l-.1-.2-.3-.2v-.4l-.2-.2-.1-.2c0-.3.8-.7 1.1-.7l1 .3v.5l-.3-.1c-.4 0-.5 0-.5.3v.6h.1c.2 0 .3 0 .5-.2l.4-.4c.2.4.2.8.1.8s-.2.1-.2.3l.2.4c.3.5.3.9.1 1.3 0 .1.1.3.5.5l-.3.4.1.4.3.3.2 1.4.3 1.5-.3.1zm-23-7.3l-.2-.1v-.2c.2.1.3.2.2.3zm2.6 1h-.2l.1-.3c.2 0 .2.1 0 .3zm16.2.6l-.1.2-.2-.2v-.2h.4v.2zm-18.1 0h.5v.4l-.5-.1zm15.7.2h-.4v-.2h.4zm.7.3c.3 0 .4 0 .4.2h-.4zm-16.2 1h-.2c-.3 0-.6-.4-.6-.4.5 0 .8-.2 1-.6l.3.2.2.1v.3h-.5l-.2.3zm15.6 0V-7l.2.1.4.2zm-13.2 1.2l-.2-.1-.3-.2h.4l.1-.1.1.1v.3zm-3 .3h-.3l.3-.2.5.2zm1.2.3l-.4-.3.4-.2c.2 0 .2.2.2.3l-.2.2zm15.8-.2l.3-.2.2.4h-.6zm1.2 3l-.1.2a3 3 0 01-.7-.8h.6l.2.6zm24.3-8.5c3.9 0 4.7-2.3 5.2-4.8l.2-1.3.1-2.3.5-7.5.7-14.6c0-.7.4-1.1 1.2-1.1h7.5c.7 0 1.2.6 1.2 1.3l-.5 14.7v4c0 3-.3 6.1-.8 9-.6 3-1.8 5.8-3.7 8-3.4 3.9-8.2 5-13 4.9-2.8 0-6.3-.5-8.4-2.4-2-2-2.9-4.8-3.2-7.5-.3-2.2-.3-4.6-.3-6.9.1-3.1.3-6.3.7-9.5l1.5-14.5c0-.7.5-1.1 1.2-1.1h7.5c.7 0 1.3.7 1.2 1.3l-1.1 14.7-.6 8c-.3 4-.2 7.6 3 7.6zm15.2-29.3v-.2c0-.2.2-.9-.4-.9-.4 0-.5.8-.5 1v1.7l.1.7h.6c0-.5 0-.8.2-1.4v-.9zm-26 6.8l-.1 2.2v.2h.2l.3-.2.1-.7-.2.1h-.1v-.2l.4-.4.4-7.7h-.6c0 .2-.1.2-.3.2.3.1.3.2.4.6v.5c0 .1 0 .3-.2.4v.3l-.1.2v.8l-.2.1v.2l.2.2-.2.7-.1.4v.3c.2.1.2.3.2.3v.4l.1.4v.4l-.3.3zm.3 7.6v-.7h-.4l-.3.1v.2c0 .2.3.4.7.4zm19.3-.3h-.4v.1l.1.1c.2 0 .2-.1.3-.2zm-19.4 2c-.4.1-.7.3-.8.5l.3.2c.5 0 .5-.4.5-.8zm20.9 4h-.4l-.2.2h.5c.2 0 .2-.1 0-.2zm-1.2 1.8H181.2h-.1l.1.2h.2zm-1 4.7v-.1l-.3.1v.1zm.7.9v-.3l-.1.3zm-4 1.7h-.4l-.1.2h.5v-.2zm-3.7.8l-.3-.1h-1l-.2.2c.2.5.5.3.8.3.4 0 .4 0 .7-.4zm1.8 0l-.2-.1v.2zm0 1h-.2v1.1zm-4.3.8h.7l-.5-.5-.3.3v.3zm48.8-25.1l-8.3.3-.4 17.9c-.2 0-.4.1-.5.3l.4.2v1.4h-.2l-.2.2-.3.1.1.5v.2h-.1V-10.8l.2.5s0 .2-.2.3c0 .2-.2.2-.2.3l.1.2.1.2v.4c0 .3 0 .5.2.5h.4v.3l-.3-.2c0 .2-.2.2-.3.2h-.3l-.1.1v.2h.5v.5l-.2.3h.3l.2.2c.1.1 0 .3-.2.3s-.3.1-.3.2l.3.4-.4.3.1.3s.1.2.3.2l-.2.1-.2.2.1.4v.5l-.1.3.2.4.1.2-.1.4c-.2.1-.2.3-.2.3 0 .1.2.6.5.6v.4c0 .8-.4 1.2-1.1 1.2l-8.3.2c-.7 0-1.4-.6-1.2-1.3l.2-9.7v-.1l.3-7.5.2.1h.1v-.2h-.4l.4-13-8.4 1.6c-.8.2-1.5-.4-1.5-1.3l.4-9.2c0-.8.4-1.1 1.2-1.2l27.4-.5c.7 0 1.3.5 1.3 1.3l-.2 6.8c0 .8-.4 1.2-1.2 1.3zm-23.5-2.4h-.4v.2h.4zm5.3.2h-.3v.2h.3zm-6.9.3l-.3-.2h-.4c-.2.2-.3.4-.1.6l.6.1.2-.2zm4.9-.2v.4h.4v-.4zm-7.8.2h-.6v.2h.6zm4 0c-.2 0-.4 0-.5.2l-.3.3.3.2h.4c-.1-.2 0-.3.1-.4h.1l.3-.1-.3-.2zm-1.8.5v.3l.8-.2zm2.5.6h-.4c-.3.2-.4.5.2.5l.2-.1zm4.3.2h-.2s0 .2.3.3l.2-.4h-.3zm-6.2.3h-.3v.2h.3zm3.9.3v-.2l-.9-.1c-.2 0-.3 0-.4.3h.5l.2.1c.3.1.5 0 .6-.1zm3.7 17.5l-.2-.2v.1l-.3.1h.2v.2zm6.5.5h-.3v.1l.1.1.2-.2zm-6.4 1.3c0-.1 0-.2-.3-.3 0 .1-.2 0-.2-.3-.3.5-.6 1-.4 1.6v.2h-.1l.1.3-.2.2v.2l.1.2.2.2c0 .1 0 .3-.3.6v2.3l-.1.7h.1l.3.1.4.1h.2v-.1-.2l-.3-.1c.2 0 .3 0 .4-.3-.2-.1-.2-.3-.2-.5v-1-.1c.2-.1.2-.3.2-.4l-.2-.4v-.6c0-.2-.2-.3 0-.5l-.2-.3c.2 0 .3-.6.3-.8l.1-.6zm8.6 2v-.1zm-1.2 2.3h-.2-.2v.2h.3l.1-.2zM202-4.8l-.2-2.5h-.1l-.2-.1c-.2 0-.6.6-.5.7v.3l.1.2v.8h-.1v.6h-.1l.1.4.3.6.3-.1.2-.6c-.1-.1 0-.2.2-.3zm52.7-37.5c-.3-.3-.5-.4-.9-.4h-8.2c-.8 0-1.2.4-1.2 1.2l-.9 14.5-5.7.3h.3s0 .3-.2.3l-.3-.1-.1-.2H235l1-14.5c0-.7-.5-1.3-1.3-1.3l-7.8.2c-.8 0-1.2.4-1.2 1.1L223-1.3c0 .8.5 1.3 1.3 1.3l9-.2c.8 0 1.2-.4 1.2-1.2l.2-14.5a39.9 39.9 0 016-1.6l1-.2 1.2-.1-.7 12.8.3.2-.3.2V-3h.2v.1l-.3.2v.8c0 .7.6 1.2 1.3 1.2h9c.8 0 1.2-.4 1.2-1.2 0-6.1 0-12.3.2-18.6.2-7 .7-14 1.1-21 .1-.3 0-.6-.3-1zm-20.2 2.5h-.3l-.1-.2h-2.8-.4l-.4.1a3 3 0 01-1-.2c.2-.1.3-.2.4-.1l.4-.3h.5v.2H234.2l.5.3zm-6.2.6l-.4-.1v-.7h.5v.2l.1.2s.2 0 .2.2l-.4.2zm.5.9h.2v.3h-.2zm17.2.5l.1.1-.3.3-.2-.4zm3.1.3h.2v.2h-.2zm-1.1.9h.2v.1h-.2zm-.3 1v.3zm-17.8 1l.1-.1v.2zm3.5 1.2l-.7-.3v-.3l.3-.2h.3v.5l.2.2zm12.9-.7h-.5v-.1h.5zm.3.7h-.5zm2.8 3.4l.3.4-.3-.3c-.2 0-.3-.2-.3-.2zm-10.2 4.1v.2l-.4-.2c-.1 0-.2 0-.2-.2l.2-.1s.3 0 .4.2v.1zm1.6 0v.2l-.2-.1zm-3.1.9l.1-.3h.4c-.1.3-.3.4-.5.3zm1.9 0h.5l.1.1-.2.2-.4-.3zm-.7 1h-.2l-.1-.2c0-.3-.2-.3 0-.4l.5-.1.1.2c0 .2-.2.3-.3.5zm-.8-.5h-.3.3zm4.8.5l-.8.2-.1-.3.5-.4.3.2.4-.2h.3c-.4.2-.5.4-.6.5zm1.8-.2l-.2.2-.1-.2zm-7 .3l-.1-.1h.2v.1zm3.9 1.6c-.2 0-.5-.3-.8-.3-.3-.1-.4-.3-.5-.4h-.3c0-.2.1-.3.3-.3h.1l.2-.2h.3c.1 0 .4 0 .4-.3 0 .2.3.4.6.4h.4s-.3.3-.3.5c0-.2-.2-.3-.3-.3a1 1 0 00-.6.2l.4.2h.2c.3 0 .5 0 .7.3v.2zm2-1.4h-.4.1zm-6.2.6H237.7zm6.4.2l.4.1h-.5zm2 .4l-.2-.1.1-.3H246.6l.2.2h-.2l-.2.1h-.3zm-7.5.3h-.2v-.2h.2zm5.7.1v-.1h.3v.1zm-2.7.4h-.1v-.2h.1zm1.4 1l-.3.1h-.2-.1l-.1-.1v-.3h1l-.3.3zm1 0h-.3l.2-.2h.5v.3h-.2zm3.8.4h.7l.1.1-.2.2h-.6zm2 1l-.1-.2.2-.1.2.1c-.3.4-.3.3-.4.2zm-4.2-.2l-.1.3-.2-.3h.3zm7.5 1.9c-.1 0-.4 0-.4-.2V-19h.4zm-5 0v.3h-.2v-.3zM231-17h.8v.1h-.3l-.5-.1zm1 .4v-.2h.2v-.1h.5v.2l-.5.1zm-3.2.1l1-.2.1.1.1.3s0 .2-.2.3l-.3.2h-.2l-.2-.3-.3-.4zm4 .3h.2l-.1.1zm14.1 1.5h-.3l-.2-.3h.3l.2.1.2.2zm-13.7.5h-.3v-.2h.5zm14.3.8h.2v.5h-.2zM232-13l.3.2-.4.2h-.3l.4-.4zm11.3.5l.3-.2.2.1v.1zm4.8.4c0-.2.2-.2.3-.2 0 0-.1.2-.3.2zm-21.6 1.3h.1v.2zm5.7 1v-.2l-.1-.2v-.2h.2c.2 0 .3.1.3.3l-.4.3zm11-.3l.3-.2h.2v.2h-.2-.3zm-16.6 0v-.1h.2zm22.2 0h.2v.2l-.2.1v-.1-.1zm-.4 1.2h-.3v-.2-.4h.1l.2.3zm-20.2-.2h-.2v-.3h.2l.1.1v.2zm4 .1h-.2-.1l.1-.2h.1v.2zm18.7.6l-.4-.1h-.3-.1c-.2 0-.2-.2-.2-.3l-.1-.4H250.5l-.2.2v.1h.7l.1.2zm-20.7-.3h-.2L230-9c0-.3.2-.4.4-.4h.3l.1.2.3-.1c-.1.2-.5.4-.7.4zm18.6-.1l.3-.3.1.3v.1zm-.5.7v.1h-.2l-.2.1h-.5l-.1-.3h.6s.2 0 .2-.2l.3.1zm-15.8-.2H233zm12.9.3h-.2l.2-.1zm-15.5.8h-.6l-.1-.1c0-.2.1-.3.2-.3h.4c.1 0 .3.1.3.3l-.2.1zm19.2 0l.2.1.3.1v.1l-.3.1a1 1 0 01-.5-.2zm-22.6.2h.1v.3zm7.3.3h-.3.3zm12.7 0h.3c0 .1 0 .2.2.3-.3 0-.5 0-.5-.3zm1 1l.1-.6v.2l.2.4zm-4.4-.4h.4l-.3.1zm-17.3.4h-.2c-.3 0-.5 0-.7-.2 0-.1 0-.2.2-.2l.7.2zm24 .8v.3h-.2c-.1 0-.2-.1-.1-.2h-.3c0-.1.1-.2.4-.3l.2-.2h.1l.2.2-.2.2zm-23.1.4v.2l-.1.3v-.7h.2l-.1.2zm18.2 0l-.2.2s-.3 0-.1-.2zm4.1 1l-.2-.2.2-.1h.3V-3.6h-.3zm1.6.2h-.2v-.3h.2zm-7.7.2c-.2 0-.3-.1 0-.3h.2l.4.2zm.6.9c-.2-.1 0-.6.2-.8l.4.2h.2l.2-.1c-.1.3-.3.4-.5.4s-.3.2-.5.3zm5 .2v-.2h.2l.1.2h-.3zm1.6.3l-.6.2-.1-.1V-2l.1-.1h.3s.1.2.3.2zm-5 .4h-.3c-.2 0-.5-.3-.5-.4l.2-.3c.2.3.5.4.8.4l-.2.3z" transform="translate(145.3 281.4)"/></svg>